<?xml version="1.0" encoding="UTF-8" standalone="no"?><!DOCTYPE svg PUBLIC "-//W3C//DTD SVG 1.1//EN" "http://www.w3.org/Graphics/SVG/1.1/DTD/svg11.dtd"><svg width="100%" height="100%" viewBox="0 0 917 917" version="1.1" xmlns="http://www.w3.org/2000/svg" xmlns:xlink="http://www.w3.org/1999/xlink" xml:space="preserve" xmlns:serif="http://www.serif.com/" style="fill-rule:evenodd;clip-rule:evenodd;stroke-linejoin:round;stroke-miterlimit:2;"><path d="M899.924,480.382l-303.264,83.732c-15.502,4.28 -27.622,16.378 -31.931,31.872l-84.499,303.875c-2.757,9.913 -11.788,16.77 -22.077,16.762c-10.29,-0.008 -19.31,-6.879 -22.051,-16.797l-83.929,-303.685c-4.29,-15.524 -16.42,-27.652 -31.944,-31.941l-303.429,-83.819c-9.926,-2.742 -16.8,-11.772 -16.8,-22.069c-0,-10.298 6.874,-19.328 16.8,-22.07l303.429,-83.819c15.524,-4.288 27.654,-16.417 31.944,-31.941l83.929,-303.685c2.741,-9.918 11.761,-16.789 22.051,-16.797c10.289,-0.008 19.32,6.849 22.077,16.762l84.499,303.875c4.309,15.494 16.429,27.592 31.931,31.872l303.264,83.732c9.927,2.741 16.802,11.772 16.802,22.071c0,10.298 -6.875,19.329 -16.802,22.07Z" style="fill:url(#_Linear1);"/><defs><linearGradient id="_Linear1" x1="0" y1="0" x2="1" y2="0" gradientUnits="userSpaceOnUse" gradientTransform="matrix(-75.1173,916.623,-916.623,-75.1173,493.864,2.27374e-13)"><stop offset="0" style="stop-color:#dcffff;stop-opacity:1"/><stop offset="0.5" style="stop-color:#dcffff;stop-opacity:1"/><stop offset="1" style="stop-color:#d2c8db;stop-opacity:1"/></linearGradient></defs></svg>