<?xml version="1.0" encoding="UTF-8" standalone="no"?><!DOCTYPE svg PUBLIC "-//W3C//DTD SVG 1.1//EN" "http://www.w3.org/Graphics/SVG/1.1/DTD/svg11.dtd"><svg width="100%" height="100%" viewBox="0 0 4292 4292" version="1.1" xmlns="http://www.w3.org/2000/svg" xmlns:xlink="http://www.w3.org/1999/xlink" xml:space="preserve" xmlns:serif="http://www.serif.com/" style="fill-rule:evenodd;clip-rule:evenodd;stroke-linejoin:round;stroke-miterlimit:2;"><g><g><g><path d="M71.031,2043.84c-42.294,14.913 -71.068,55.002 -71.068,100.42c-0.066,47.963 31.904,90.037 78.195,102.805l1423.75,391.799c40.829,11.296 76.596,34.255 103.638,65.133c21.513,24.085 37.632,53.124 46.557,85.301c-0,0 390.573,1417.63 391.705,1430.31c14.92,42.268 55.016,70.981 100.374,71.015c47.956,0.04 90.051,-31.971 102.839,-78.201l391.372,-1423.12c10.124,-36.632 29.639,-69.202 55.815,-95.019c25.843,-26.189 58.413,-45.691 95.046,-55.821l1423.09,-391.393c46.224,-12.768 78.261,-54.842 78.194,-102.805c0,-45.384 -28.706,-85.447 -71.001,-100.38c-12.655,-1.133 -1430.28,-391.739 -1430.28,-391.739c-32.17,-8.892 -61.21,-25.023 -85.321,-46.557c-30.839,-27.008 -53.817,-62.802 -65.14,-103.651l-391.772,-1423.75c-12.788,-46.231 -54.883,-78.241 -102.839,-78.201c-45.424,0.033 -85.454,28.793 -100.374,71.107c-1.132,12.655 -392.105,1430.84 -392.105,1430.84c-10.057,36.393 -29.373,68.77 -55.349,94.5c-25.709,25.929 -58.079,45.244 -94.446,55.308c0,0 -1418.23,390.966 -1430.88,392.099Z"/></g></g></g></svg>