<?xml version="1.0" encoding="UTF-8" standalone="no"?><!DOCTYPE svg PUBLIC "-//W3C//DTD SVG 1.1//EN" "http://www.w3.org/Graphics/SVG/1.1/DTD/svg11.dtd"><svg width="100%" height="100%" viewBox="0 0 3482 3482" version="1.1" xmlns="http://www.w3.org/2000/svg" xmlns:xlink="http://www.w3.org/1999/xlink" xml:space="preserve" xmlns:serif="http://www.serif.com/" style="fill-rule:evenodd;clip-rule:evenodd;stroke-linejoin:round;stroke-miterlimit:2;"><path id="arte-en-vector---simbolo" serif:id="arte en vector - simbolo" d="M3481.39,3481.29l-3481.39,0l-0,-3481.29l3481.39,0l-0,3481.29Z" style="fill:#0e0e11;fill-opacity:0;"/><clipPath id="_clip1"><path d="M3481.39,3481.29l-3481.39,0l-0,-3481.29l3481.39,0l-0,3481.29Z"/></clipPath><g clip-path="url(#_clip1)"><g><path d="M1392.62,3481.29c-38.017,0 -71.871,-24.055 -84.378,-59.956c-84.131,-241.496 -399.847,-1147.75 -529.45,-1519.77c-10.93,-31.374 -3.55,-66.222 19.16,-90.471c22.71,-24.25 57,-33.897 89.022,-25.046c183.611,50.749 470.085,129.93 583.738,161.343c30.293,8.373 53.959,32.045 62.325,62.34c32.068,116.131 113.996,412.823 164.992,597.499c5.352,19.381 22.992,32.8 43.099,32.784c20.107,-0.016 37.726,-13.462 43.048,-32.852c50.656,-184.577 131.999,-480.969 163.879,-597.13c8.329,-30.352 32.014,-54.083 62.35,-62.472c113.756,-31.459 400.34,-110.712 583.99,-161.499c32.021,-8.855 66.311,0.788 89.025,25.034c22.713,24.246 30.098,59.093 19.173,90.468c-129.539,372.019 -445.093,1278.25 -529.189,1519.76c-12.503,35.908 -46.361,59.969 -84.383,59.969c-153.435,0 -542.976,0 -696.401,0Z" style="fill:#fff;"/><path d="M1392.62,0c-38.017,-0 -71.871,24.056 -84.378,59.957c-84.131,241.495 -399.847,1147.75 -529.45,1519.77c-10.93,31.374 -3.55,66.222 19.16,90.472c22.71,24.25 57,33.897 89.022,25.046c183.611,-50.75 470.085,-129.93 583.738,-161.344c30.293,-8.373 53.959,-32.045 62.325,-62.339c32.068,-116.132 113.996,-412.823 164.992,-597.499c5.352,-19.382 22.992,-32.8 43.099,-32.784c20.107,0.015 37.726,13.461 43.048,32.852c50.656,184.577 131.999,480.968 163.879,597.13c8.329,30.352 32.014,54.083 62.35,62.472c113.756,31.458 400.34,110.711 583.99,161.498c32.021,8.855 66.311,-0.787 89.025,-25.034c22.713,-24.246 30.098,-59.092 19.173,-90.468c-129.539,-372.019 -445.093,-1278.25 -529.189,-1519.76c-12.503,-35.907 -46.361,-59.969 -84.383,-59.969c-153.435,0 -542.976,0 -696.401,0Z" style="fill:#fff;"/></g></g></svg>