<?xml version="1.0" encoding="UTF-8" standalone="no"?><!DOCTYPE svg PUBLIC "-//W3C//DTD SVG 1.1//EN" "http://www.w3.org/Graphics/SVG/1.1/DTD/svg11.dtd"><svg width="100%" height="100%" viewBox="0 0 3482 3482" version="1.1" xmlns="http://www.w3.org/2000/svg" xmlns:xlink="http://www.w3.org/1999/xlink" xml:space="preserve" xmlns:serif="http://www.serif.com/" style="fill-rule:evenodd;clip-rule:evenodd;stroke-linejoin:round;stroke-miterlimit:2;"><path id="aev---simbolo-svg" serif:id="aev - simbolo svg" d="M0,0l3481.25,0l0,3481.29l-3481.25,0l0,-3481.29Z" style="fill:#0c0c0c;fill-opacity:0;"/><clipPath id="_clip1"><path d="M0,0l3481.25,0l0,3481.29l-3481.25,0l0,-3481.29Z"/></clipPath><g clip-path="url(#_clip1)"><path d="M763.571,1858.23c-26.516,-76.148 -26.516,-159.022 -0,-235.17c110.194,-316.465 412.213,-1183.82 523.375,-1503.06c25.018,-71.849 92.765,-119.995 168.844,-119.995c154.768,-0 414.656,-0 569.415,-0c76.07,0 143.81,48.134 168.836,119.969c111.202,319.205 413.355,1186.52 523.621,1503.04c26.538,76.179 26.538,159.093 -0,235.272c-110.266,316.516 -412.419,1183.83 -523.621,1503.04c-25.026,71.835 -92.766,119.969 -168.836,119.969l-569.415,0c-76.079,0 -143.826,-48.146 -168.844,-119.994c-111.162,-319.243 -413.181,-1186.6 -523.375,-1503.06Zm1839.03,-74.5c19.379,-5.351 32.801,-22.981 32.801,-43.085c-0,-20.104 -13.422,-37.734 -32.801,-43.085c-183.209,-50.584 -476.701,-131.618 -592.022,-163.458c-30.263,-8.356 -53.924,-31.974 -62.335,-62.221c-32.122,-115.518 -113.989,-409.927 -164.957,-593.214c-5.381,-19.353 -23.011,-32.738 -43.098,-32.723c-20.087,0.016 -37.696,13.43 -43.046,32.791c-50.628,183.188 -131.91,477.296 -163.843,592.844c-8.376,30.305 -32.056,53.982 -62.362,62.354c-115.441,31.889 -409.104,113.011 -592.344,163.629c-19.376,5.352 -32.795,22.981 -32.795,43.083c-0,20.102 13.419,37.731 32.795,43.084c183.24,50.618 476.903,131.739 592.344,163.628c30.306,8.372 53.986,32.049 62.362,62.354c31.933,115.549 113.215,409.657 163.843,592.845c5.35,19.361 22.959,32.774 43.046,32.79c20.087,0.016 37.717,-13.37 43.098,-32.722c50.968,-183.288 132.835,-477.697 164.957,-593.215c8.411,-30.247 32.072,-53.865 62.335,-62.22c115.321,-31.841 408.813,-112.875 592.022,-163.459Z" style="fill:url(#_Linear2);"/></g><defs><linearGradient id="_Linear2" x1="0" y1="0" x2="1" y2="0" gradientUnits="userSpaceOnUse" gradientTransform="matrix(-841.853,3481.29,-3481.29,-841.853,2138.71,-1.81899e-12)"><stop offset="0" style="stop-color:#dcffff;stop-opacity:1"/><stop offset="0.5" style="stop-color:#dcffff;stop-opacity:1"/><stop offset="1" style="stop-color:#d2c8db;stop-opacity:1"/></linearGradient></defs></svg>